<svg viewBox="0 0 72 72" xmlns="http://www.w3.org/2000/svg"><path d="m24 18h36v7h-36z" fill="#d0cfce"/><path d="m24 33h36v7h-36z" fill="#d0cfce"/><path d="m24 48h36v7h-36z" fill="#d0cfce"/><path d="m12 48h7v7h-7z" fill="#9b9b9a"/><path d="m12 33h7v7h-7z" fill="#9b9b9a"/><path d="m12 18h7v7h-7z" fill="#9b9b9a"/><g style="fill:none;stroke:#000;stroke-linecap:round;stroke-linejoin:round;stroke-miterlimit:10;stroke-width:2"><path d="m59 25h-34c-.5523 0-1-.4477-1-1v-5c0-.5523.4477-1 1-1h34c.5523 0 1 .4477 1 1v5c0 .5523-.4477 1-1 1z"/><path d="m59 40h-34c-.5523 0-1-.4477-1-1v-5c0-.5523.4477-1 1-1h34c.5523 0 1 .4477 1 1v5c0 .5523-.4477 1-1 1z"/><path d="m59 55h-34c-.5523 0-1-.4477-1-1v-5c0-.5523.4477-1 1-1h34c.5523 0 1 .4477 1 1v5c0 .5523-.4477 1-1 1z"/><path d="m18 25h-5c-.5523 0-1-.4477-1-1v-5c0-.5523.4477-1 1-1h5c.5523 0 1 .4477 1 1v5c0 .5523-.4477 1-1 1z"/><path d="m18 40h-5c-.5523 0-1-.4477-1-1v-5c0-.5523.4477-1 1-1h5c.5523 0 1 .4477 1 1v5c0 .5523-.4477 1-1 1z"/><path d="m18 55h-5c-.5523 0-1-.4477-1-1v-5c0-.5523.4477-1 1-1h5c.5523 0 1 .4477 1 1v5c0 .5523-.4477 1-1 1z"/></g></svg>